<svg role="img" xmlns="http://www.w3.org/2000/svg" viewBox="0 0 841 144" fill="currentColor"><title>ProPublica</title><path d="M771.055 88.7807L786.575 22.5573L802.302 88.7807H771.055ZM804.993 1.44863H780.781L783.264 12.2099L757.397 122.72L749.533 142.173H768.571L763.191 122.72L769.399 96.2308H804.165L812.856 132.447L811.201 142.173H841L836.24 131.619L804.993 1.44863ZM717.25 143.622C734.426 143.622 744.566 132.033 749.947 117.546L745.601 115.684C741.048 126.859 734.426 134.93 723.045 134.93C707.317 134.93 699.868 113.614 699.868 70.1554C699.868 26.6963 707.11 4.96675 720.768 4.96675C727.184 4.96675 731.529 9.31265 740.014 20.2809L748.498 31.2492H749.326L744.566 1.44863H738.151C731.322 1.44863 726.356 0.206953 720.768 0.206953C693.452 0.206953 675.242 30.2144 675.242 73.8804C675.242 117.546 691.176 143.622 717.25 143.622ZM637.165 11.796V131.826L633.854 142.173H663.86L660.342 131.826V11.796L663.86 1.44863H633.854L637.165 11.796ZM557.287 11.796V131.826L553.976 142.173H619.368L626.197 107.406H625.37L601.572 137.207H580.464V11.796L583.982 1.44863H553.976L557.287 11.796ZM500.378 137.413H489.411V70.7762H499.137C512.588 70.7762 518.589 80.7097 518.589 104.302C518.589 127.894 513.002 137.413 500.378 137.413ZM499.344 6.20846C511.346 6.20846 516.727 15.1072 516.727 36.2159C516.727 57.3246 511.346 66.0164 499.551 66.0164H489.411V6.20846H499.344ZM513.829 67.672V67.2581C529.971 62.7052 540.525 51.3231 540.525 33.7325C540.525 13.8655 526.246 1.44863 502.862 1.44863H462.922L466.233 11.796V131.826L462.922 142.173H501.827C527.694 142.173 543.215 126.445 543.215 103.267C543.215 83.8139 532.247 70.9832 513.829 67.672ZM408.911 143.622C433.123 143.622 445.747 130.377 445.747 106.992V21.1087L452.162 1.44863H433.123L439.952 21.1087V107.199C439.952 124.169 432.502 133.481 417.189 133.481C401.875 133.481 395.46 124.583 395.46 106.992V11.796L398.771 1.44863H368.972L372.283 11.796V108.441C372.283 130.791 384.906 143.622 408.911 143.622ZM317.03 75.9499H306.684V6.20846H316.617C328.826 6.20846 334.413 16.3489 334.413 41.3896C334.413 66.4303 329.033 75.9499 317.03 75.9499ZM320.342 1.44863H280.195L283.506 11.796V131.826L280.195 142.173H310.202L306.684 131.826V80.7097H320.135C344.346 80.7097 359.039 63.3261 359.039 40.3549C359.039 17.3836 345.174 1.44863 320.342 1.44863ZM223.908 138.448C209.836 138.448 203.421 119.409 203.421 71.8109C203.421 24.2129 209.836 5.1737 223.701 5.1737C237.566 5.1737 243.981 24.006 243.981 71.8109C243.981 119.616 237.566 138.448 223.908 138.448ZM223.494 143.622C249.568 143.622 268.607 114.235 268.607 71.1901C268.607 28.1449 249.155 0 223.908 0C198.661 0 178.795 29.3866 178.795 72.4318C178.795 115.477 198.248 143.622 223.494 143.622ZM126.026 70.1554H115.472V6.41538H125.612C137.201 6.41538 142.374 15.5211 142.374 38.4923C142.374 61.4636 137.407 70.1554 126.026 70.1554ZM129.544 1.44863H88.9838L92.2948 11.796V131.826L88.9838 142.173H118.99L115.472 131.826V75.1221H122.301L151.479 142.173H176.519V141.759L145.685 72.0179C159.343 66.4303 167 53.5995 167 37.4576C167 15.935 153.342 1.44863 129.544 1.44863ZM36.8351 75.9499H26.4882V6.20846H36.4213C48.6307 6.20846 54.218 16.3489 54.218 41.3896C54.218 66.4303 48.8376 75.9499 36.8351 75.9499ZM40.1462 1.44863H0L3.31102 11.796V131.826L0 142.173H30.0062L26.4882 131.826V80.7097H39.9392C64.1511 80.7097 78.8437 63.3261 78.8437 40.3549C78.8437 17.3836 64.9788 1.44863 40.1462 1.44863Z"></path></svg>